<?xml version='1.0' encoding='UTF-8'?>
<svg width="41mm" height="41mm" version="1.1" viewBox="0 0 41 41" xmlns="http://www.w3.org/2000/svg"><path d="M4,4H5V5H4zM5,4H6V5H5zM6,4H7V5H6zM7,4H8V5H7zM8,4H9V5H8zM9,4H10V5H9zM10,4H11V5H10zM20,4H21V5H20zM22,4H23V5H22zM26,4H27V5H26zM30,4H31V5H30zM31,4H32V5H31zM32,4H33V5H32zM33,4H34V5H33zM34,4H35V5H34zM35,4H36V5H35zM36,4H37V5H36zM4,5H5V6H4zM10,5H11V6H10zM15,5H16V6H15zM21,5H22V6H21zM22,5H23V6H22zM24,5H25V6H24zM25,5H26V6H25zM26,5H27V6H26zM28,5H29V6H28zM30,5H31V6H30zM36,5H37V6H36zM4,6H5V7H4zM6,6H7V7H6zM7,6H8V7H7zM8,6H9V7H8zM10,6H11V7H10zM13,6H14V7H13zM18,6H19V7H18zM19,6H20V7H19zM20,6H21V7H20zM22,6H23V7H22zM23,6H24V7H23zM26,6H27V7H26zM27,6H28V7H27zM30,6H31V7H30zM32,6H33V7H32zM33,6H34V7H33zM34,6H35V7H34zM36,6H37V7H36zM4,7H5V8H4zM6,7H7V8H6zM7,7H8V8H7zM8,7H9V8H8zM10,7H11V8H10zM12,7H13V8H12zM14,7H15V8H14zM15,7H16V8H15zM16,7H17V8H16zM20,7H21V8H20zM22,7H23V8H22zM24,7H25V8H24zM26,7H27V8H26zM28,7H29V8H28zM30,7H31V8H30zM32,7H33V8H32zM33,7H34V8H33zM34,7H35V8H34zM36,7H37V8H36zM4,8H5V9H4zM6,8H7V9H6zM7,8H8V9H7zM8,8H9V9H8zM10,8H11V9H10zM14,8H15V9H14zM16,8H17V9H16zM17,8H18V9H17zM19,8H20V9H19zM22,8H23V9H22zM23,8H24V9H23zM24,8H25V9H24zM25,8H26V9H25zM26,8H27V9H26zM27,8H28V9H27zM28,8H29V9H28zM30,8H31V9H30zM32,8H33V9H32zM33,8H34V9H33zM34,8H35V9H34zM36,8H37V9H36zM4,9H5V10H4zM10,9H11V10H10zM12,9H13V10H12zM13,9H14V10H13zM14,9H15V10H14zM16,9H17V10H16zM17,9H18V10H17zM19,9H20V10H19zM20,9H21V10H20zM21,9H22V10H21zM22,9H23V10H22zM24,9H25V10H24zM28,9H29V10H28zM30,9H31V10H30zM36,9H37V10H36zM4,10H5V11H4zM5,10H6V11H5zM6,10H7V11H6zM7,10H8V11H7zM8,10H9V11H8zM9,10H10V11H9zM10,10H11V11H10zM12,10H13V11H12zM14,10H15V11H14zM16,10H17V11H16zM18,10H19V11H18zM20,10H21V11H20zM22,10H23V11H22zM24,10H25V11H24zM26,10H27V11H26zM28,10H29V11H28zM30,10H31V11H30zM31,10H32V11H31zM32,10H33V11H32zM33,10H34V11H33zM34,10H35V11H34zM35,10H36V11H35zM36,10H37V11H36zM12,11H13V12H12zM16,11H17V12H16zM17,11H18V12H17zM18,11H19V12H18zM20,11H21V12H20zM26,11H27V12H26zM5,12H6V13H5zM6,12H7V13H6zM10,12H11V13H10zM13,12H14V13H13zM17,12H18V13H17zM18,12H19V13H18zM23,12H24V13H23zM24,12H25V13H24zM27,12H28V13H27zM28,12H29V13H28zM30,12H31V13H30zM31,12H32V13H31zM33,12H34V13H33zM4,13H5V14H4zM5,13H6V14H5zM6,13H7V14H6zM7,13H8V14H7zM8,13H9V14H8zM12,13H13V14H12zM14,13H15V14H14zM23,13H24V14H23zM24,13H25V14H24zM26,13H27V14H26zM27,13H28V14H27zM28,13H29V14H28zM30,13H31V14H30zM33,13H34V14H33zM36,13H37V14H36zM4,14H5V15H4zM5,14H6V15H5zM10,14H11V15H10zM12,14H13V15H12zM13,14H14V15H13zM18,14H19V15H18zM20,14H21V15H20zM21,14H22V15H21zM22,14H23V15H22zM23,14H24V15H23zM25,14H26V15H25zM26,14H27V15H26zM27,14H28V15H27zM28,14H29V15H28zM30,14H31V15H30zM33,14H34V15H33zM34,14H35V15H34zM36,14H37V15H36zM7,15H8V16H7zM8,15H9V16H8zM9,15H10V16H9zM11,15H12V16H11zM13,15H14V16H13zM14,15H15V16H14zM15,15H16V16H15zM18,15H19V16H18zM22,15H23V16H22zM23,15H24V16H23zM24,15H25V16H24zM26,15H27V16H26zM27,15H28V16H27zM29,15H30V16H29zM31,15H32V16H31zM32,15H33V16H32zM33,15H34V16H33zM36,15H37V16H36zM4,16H5V17H4zM6,16H7V17H6zM7,16H8V17H7zM8,16H9V17H8zM9,16H10V17H9zM10,16H11V17H10zM14,16H15V17H14zM15,16H16V17H15zM16,16H17V17H16zM21,16H22V17H21zM22,16H23V17H22zM23,16H24V17H23zM24,16H25V17H24zM25,16H26V17H25zM26,16H27V17H26zM27,16H28V17H27zM28,16H29V17H28zM30,16H31V17H30zM5,17H6V18H5zM7,17H8V18H7zM9,17H10V18H9zM14,17H15V18H14zM15,17H16V18H15zM17,17H18V18H17zM19,17H20V18H19zM20,17H21V18H20zM21,17H22V18H21zM22,17H23V18H22zM24,17H25V18H24zM26,17H27V18H26zM28,17H29V18H28zM30,17H31V18H30zM31,17H32V18H31zM35,17H36V18H35zM36,17H37V18H36zM4,18H5V19H4zM8,18H9V19H8zM10,18H11V19H10zM11,18H12V19H11zM15,18H16V19H15zM16,18H17V19H16zM18,18H19V19H18zM20,18H21V19H20zM24,18H25V19H24zM25,18H26V19H25zM28,18H29V19H28zM32,18H33V19H32zM36,18H37V19H36zM5,19H6V20H5zM9,19H10V20H9zM11,19H12V20H11zM13,19H14V20H13zM14,19H15V20H14zM16,19H17V20H16zM17,19H18V20H17zM18,19H19V20H18zM20,19H21V20H20zM21,19H22V20H21zM23,19H24V20H23zM24,19H25V20H24zM27,19H28V20H27zM28,19H29V20H28zM29,19H30V20H29zM30,19H31V20H30zM33,19H34V20H33zM4,20H5V21H4zM5,20H6V21H5zM7,20H8V21H7zM8,20H9V21H8zM10,20H11V21H10zM11,20H12V21H11zM12,20H13V21H12zM14,20H15V21H14zM15,20H16V21H15zM16,20H17V21H16zM17,20H18V21H17zM18,20H19V21H18zM20,20H21V21H20zM21,20H22V21H21zM24,20H25V21H24zM30,20H31V21H30zM31,20H32V21H31zM33,20H34V21H33zM35,20H36V21H35zM5,21H6V22H5zM8,21H9V22H8zM9,21H10V22H9zM11,21H12V22H11zM12,21H13V22H12zM15,21H16V22H15zM17,21H18V22H17zM18,21H19V22H18zM21,21H22V22H21zM22,21H23V22H22zM23,21H24V22H23zM24,21H25V22H24zM25,21H26V22H25zM27,21H28V22H27zM28,21H29V22H28zM30,21H31V22H30zM33,21H34V22H33zM36,21H37V22H36zM7,22H8V23H7zM10,22H11V23H10zM11,22H12V23H11zM14,22H15V23H14zM16,22H17V23H16zM17,22H18V23H17zM20,22H21V23H20zM21,22H22V23H21zM22,22H23V23H22zM23,22H24V23H23zM27,22H28V23H27zM31,22H32V23H31zM33,22H34V23H33zM34,22H35V23H34zM35,22H36V23H35zM36,22H37V23H36zM7,23H8V24H7zM8,23H9V24H8zM9,23H10V24H9zM11,23H12V24H11zM14,23H15V24H14zM15,23H16V24H15zM16,23H17V24H16zM17,23H18V24H17zM20,23H21V24H20zM25,23H26V24H25zM27,23H28V24H27zM29,23H30V24H29zM30,23H31V24H30zM32,23H33V24H32zM33,23H34V24H33zM35,23H36V24H35zM4,24H5V25H4zM5,24H6V25H5zM6,24H7V25H6zM9,24H10V25H9zM10,24H11V25H10zM12,24H13V25H12zM15,24H16V25H15zM18,24H19V25H18zM23,24H24V25H23zM25,24H26V25H25zM27,24H28V25H27zM28,24H29V25H28zM30,24H31V25H30zM35,24H36V25H35zM5,25H6V26H5zM6,25H7V26H6zM7,25H8V26H7zM11,25H12V26H11zM12,25H13V26H12zM16,25H17V26H16zM17,25H18V26H17zM18,25H19V26H18zM19,25H20V26H19zM21,25H22V26H21zM22,25H23V26H22zM25,25H26V26H25zM29,25H30V26H29zM30,25H31V26H30zM31,25H32V26H31zM33,25H34V26H33zM34,25H35V26H34zM36,25H37V26H36zM4,26H5V27H4zM5,26H6V27H5zM8,26H9V27H8zM9,26H10V27H9zM10,26H11V27H10zM17,26H18V27H17zM18,26H19V27H18zM20,26H21V27H20zM21,26H22V27H21zM22,26H23V27H22zM23,26H24V27H23zM25,26H26V27H25zM26,26H27V27H26zM27,26H28V27H27zM29,26H30V27H29zM30,26H31V27H30zM36,26H37V27H36zM6,27H7V28H6zM9,27H10V28H9zM11,27H12V28H11zM15,27H16V28H15zM16,27H17V28H16zM18,27H19V28H18zM19,27H20V28H19zM20,27H21V28H20zM21,27H22V28H21zM22,27H23V28H22zM26,27H27V28H26zM28,27H29V28H28zM29,27H30V28H29zM31,27H32V28H31zM32,27H33V28H32zM33,27H34V28H33zM36,27H37V28H36zM4,28H5V29H4zM5,28H6V29H5zM7,28H8V29H7zM8,28H9V29H8zM10,28H11V29H10zM13,28H14V29H13zM15,28H16V29H15zM17,28H18V29H17zM18,28H19V29H18zM20,28H21V29H20zM21,28H22V29H21zM22,28H23V29H22zM23,28H24V29H23zM24,28H25V29H24zM27,28H28V29H27zM28,28H29V29H28zM29,28H30V29H29zM30,28H31V29H30zM31,28H32V29H31zM32,28H33V29H32zM33,28H34V29H33zM35,28H36V29H35zM36,28H37V29H36zM12,29H13V30H12zM13,29H14V30H13zM15,29H16V30H15zM17,29H18V30H17zM21,29H22V30H21zM23,29H24V30H23zM24,29H25V30H24zM26,29H27V30H26zM28,29H29V30H28zM32,29H33V30H32zM35,29H36V30H35zM36,29H37V30H36zM4,30H5V31H4zM5,30H6V31H5zM6,30H7V31H6zM7,30H8V31H7zM8,30H9V31H8zM9,30H10V31H9zM10,30H11V31H10zM14,30H15V31H14zM17,30H18V31H17zM19,30H20V31H19zM21,30H22V31H21zM22,30H23V31H22zM23,30H24V31H23zM25,30H26V31H25zM26,30H27V31H26zM28,30H29V31H28zM30,30H31V31H30zM32,30H33V31H32zM33,30H34V31H33zM34,30H35V31H34zM36,30H37V31H36zM4,31H5V32H4zM10,31H11V32H10zM15,31H16V32H15zM16,31H17V32H16zM19,31H20V32H19zM21,31H22V32H21zM22,31H23V32H22zM24,31H25V32H24zM26,31H27V32H26zM27,31H28V32H27zM28,31H29V32H28zM32,31H33V32H32zM33,31H34V32H33zM35,31H36V32H35zM36,31H37V32H36zM4,32H5V33H4zM6,32H7V33H6zM7,32H8V33H7zM8,32H9V33H8zM10,32H11V33H10zM13,32H14V33H13zM14,32H15V33H14zM17,32H18V33H17zM21,32H22V33H21zM23,32H24V33H23zM24,32H25V33H24zM25,32H26V33H25zM26,32H27V33H26zM27,32H28V33H27zM28,32H29V33H28zM29,32H30V33H29zM30,32H31V33H30zM31,32H32V33H31zM32,32H33V33H32zM35,32H36V33H35zM36,32H37V33H36zM4,33H5V34H4zM6,33H7V34H6zM7,33H8V34H7zM8,33H9V34H8zM10,33H11V34H10zM18,33H19V34H18zM19,33H20V34H19zM22,33H23V34H22zM24,33H25V34H24zM26,33H27V34H26zM27,33H28V34H27zM31,33H32V34H31zM32,33H33V34H32zM33,33H34V34H33zM34,33H35V34H34zM36,33H37V34H36zM4,34H5V35H4zM6,34H7V35H6zM7,34H8V35H7zM8,34H9V35H8zM10,34H11V35H10zM12,34H13V35H12zM13,34H14V35H13zM14,34H15V35H14zM15,34H16V35H15zM16,34H17V35H16zM18,34H19V35H18zM20,34H21V35H20zM21,34H22V35H21zM22,34H23V35H22zM24,34H25V35H24zM27,34H28V35H27zM28,34H29V35H28zM31,34H32V35H31zM32,34H33V35H32zM34,34H35V35H34zM35,34H36V35H35zM36,34H37V35H36zM4,35H5V36H4zM10,35H11V36H10zM12,35H13V36H12zM14,35H15V36H14zM15,35H16V36H15zM16,35H17V36H16zM17,35H18V36H17zM18,35H19V36H18zM20,35H21V36H20zM21,35H22V36H21zM23,35H24V36H23zM24,35H25V36H24zM28,35H29V36H28zM29,35H30V36H29zM31,35H32V36H31zM32,35H33V36H32zM4,36H5V37H4zM5,36H6V37H5zM6,36H7V37H6zM7,36H8V37H7zM8,36H9V37H8zM9,36H10V37H9zM10,36H11V37H10zM15,36H16V37H15zM16,36H17V37H16zM17,36H18V37H17zM21,36H22V37H21zM22,36H23V37H22zM24,36H25V37H24zM28,36H29V37H28zM29,36H30V37H29zM30,36H31V37H30zM31,36H32V37H31zM32,36H33V37H32zM33,36H34V37H33zM36,36H37V37H36z" id="qr-path" fill="#000000" fill-opacity="1" fill-rule="nonzero" stroke="none" /></svg>